<svg width="32" height="32" viewBox="0 0 32 32" fill="none" xmlns="http://www.w3.org/2000/svg">
  <!-- Background circle with gradient -->
  <circle cx="16" cy="16" r="16" fill="url(#gradient)"/>
  
  <!-- Stylized "JS" for Jan Stenk -->
  <path d="M8 10 L8 14 C8 15.1 8.9 16 10 16 L10 16" stroke="white" stroke-width="2" stroke-linecap="round"/>
  <path d="M8 14 L10 14" stroke="white" stroke-width="2" stroke-linecap="round"/>
  
  <path d="M15 10 C15 10 18 10 18 12.5 C18 14 16.5 15 15 15 C16.5 15 18 16 18 17.5 C18 20 15 20 15 20" stroke="white" stroke-width="2" stroke-linecap="round" stroke-linejoin="round" fill="none"/>
  
  <!-- Code brackets accent -->
  <path d="M22 11 L24 13 L22 15" stroke="#60A5FA" stroke-width="1.5" stroke-linecap="round" stroke-linejoin="round"/>
  <path d="M26 11 L28 13 L26 15" stroke="#60A5FA" stroke-width="1.5" stroke-linecap="round" stroke-linejoin="round"/>
  
  <defs>
    <linearGradient id="gradient" x1="0" y1="0" x2="32" y2="32" gradientUnits="userSpaceOnUse">
      <stop offset="0%" stop-color="#2563EB"/>
      <stop offset="100%" stop-color="#4F46E5"/>
    </linearGradient>
  </defs>
</svg>
